<?xml version="1.0" standalone="no"?>
<!DOCTYPE svg PUBLIC "-//W3C//DTD SVG 20010904//EN"
 "http://www.w3.org/TR/2001/REC-SVG-20010904/DTD/svg10.dtd">
<svg version="1.0" xmlns="http://www.w3.org/2000/svg"
 width="700.000000pt" height="700.000000pt" viewBox="0 0 700.000000 700.000000"
 preserveAspectRatio="xMidYMid meet">
<metadata>
Created by potrace 1.11, written by Peter Selinger 2001-2013
</metadata>
<g transform="translate(0.000000,700.000000) scale(0.100000,-0.100000)"
fill="#000000" stroke="none">
<path d="M3278 6995 c-1 -1 -41 -5 -88 -9 -47 -4 -101 -9 -120 -12 -108 -15
-243 -38 -300 -51 -36 -8 -75 -17 -87 -19 -47 -9 -272 -76 -353 -106 -348
-126 -658 -294 -945 -512 -44 -34 -85 -65 -91 -71 -6 -5 -41 -35 -78 -65 -99
-82 -339 -330 -439 -455 -379 -473 -628 -1023 -727 -1609 -22 -131 -24 -149
-37 -286 -15 -161 -8 -605 12 -708 1 -9 6 -42 9 -72 7 -62 12 -94 26 -165 6
-27 12 -59 14 -71 31 -159 124 -461 196 -629 182 -428 426 -791 750 -1115 134
-135 170 -168 265 -246 333 -274 737 -494 1155 -629 63 -20 122 -38 130 -40 8
-2 51 -12 95 -24 44 -11 96 -23 115 -26 19 -3 53 -10 75 -15 44 -9 95 -18 158
-25 23 -3 53 -7 66 -10 142 -27 660 -27 851 1 450 65 776 166 1145 352 430
217 774 492 1120 893 46 53 155 200 213 286 273 407 455 864 541 1353 18 103
24 145 38 270 8 73 10 518 3 595 -17 173 -21 211 -25 225 -2 8 -7 35 -10 60
-4 25 -10 63 -15 85 -5 22 -11 55 -15 72 -8 47 -40 174 -68 273 -97 334 -276
707 -479 998 -62 88 -138 190 -161 214 -6 7 -44 51 -84 98 -125 148 -346 355
-519 487 -101 76 -290 203 -304 203 -5 0 -10 5 -10 10 0 6 -4 10 -9 10 -4 0
-46 22 -92 48 -330 188 -773 343 -1144 398 -27 4 -57 9 -65 10 -8 2 -44 6 -80
10 -36 3 -78 8 -95 11 -33 5 -531 13 -537 8z m477 -119 c50 -4 101 -9 115 -11
14 -2 50 -7 80 -10 381 -43 870 -207 1225 -413 427 -246 812 -598 1093 -995
260 -367 459 -827 547 -1262 73 -359 91 -800 46 -1100 -6 -33 -12 -82 -16
-110 -34 -271 -172 -700 -320 -996 -228 -453 -593 -887 -1006 -1194 -310 -231
-675 -415 -1043 -525 -203 -61 -349 -92 -596 -124 -140 -19 -438 -25 -615 -13
-98 7 -326 34 -355 42 -8 2 -31 7 -50 10 -255 43 -631 173 -895 309 -335 172
-586 357 -860 631 -461 459 -769 1020 -909 1653 -178 801 -57 1649 335 2358
83 150 218 354 309 468 132 165 361 398 520 527 324 264 663 452 1055 586 108
37 386 111 449 119 22 2 58 9 80 14 23 4 70 11 106 15 36 4 74 9 84 11 11 2
70 6 130 10 61 4 112 7 113 8 5 4 299 -2 378 -8z"/>
<path d="M3243 6372 c-18 -2 -33 -4 -33 -5 0 -1 -31 -112 -70 -247 -38 -135
-70 -250 -70 -257 0 -13 97 -13 117 0 6 4 14 25 18 47 4 22 12 40 18 41 24 2
103 9 140 13 35 3 41 0 58 -28 10 -17 20 -35 22 -41 3 -9 116 -9 125 -1 2 2
-46 112 -105 245 l-108 241 -40 -2 c-22 -2 -55 -4 -72 -6z m87 -225 c18 -43
30 -80 28 -83 -10 -9 -108 -12 -108 -3 0 10 28 131 36 158 6 19 7 17 44 -72z"/>
<path d="M3812 6356 c-5 -6 -19 -69 -31 -141 -12 -71 -31 -177 -41 -235 -11
-58 -20 -106 -20 -106 0 -1 21 -5 48 -9 26 -5 53 -9 60 -11 13 -2 15 6 32 100
5 33 12 61 14 64 3 2 24 0 48 -4 143 -27 225 24 235 144 6 74 -17 118 -78 149
-56 29 -255 65 -267 49z m181 -118 c30 -12 43 -44 33 -83 -9 -35 -45 -50 -93
-38 -36 9 -38 11 -36 44 2 19 5 49 8 67 5 29 9 32 33 26 15 -3 39 -10 55 -16z"/>
<path d="M2370 6165 c-52 -24 -116 -53 -141 -65 l-47 -21 101 -222 c55 -122
103 -226 107 -230 4 -4 70 20 148 54 l141 62 -15 36 c-22 52 -25 53 -74 30
-99 -48 -128 -58 -133 -46 -3 7 -12 29 -21 50 l-17 38 76 34 c41 19 75 37 75
39 0 14 -35 76 -42 76 -5 0 -40 -13 -79 -30 l-69 -29 -14 27 c-33 65 -33 65
56 107 46 22 85 40 86 41 4 3 -36 94 -40 93 -2 0 -46 -20 -98 -44z"/>
<path d="M4510 6080 c-41 -43 -124 -129 -184 -190 l-109 -111 53 -25 c28 -13
57 -24 64 -24 6 0 26 16 45 35 24 26 37 33 49 26 44 -23 134 -61 143 -61 8 0
9 -18 5 -53 l-7 -54 57 -22 c31 -12 58 -20 60 -18 3 2 6 39 18 227 2 30 7 111
11 180 l7 126 -54 22 c-29 12 -60 22 -68 22 -8 -1 -49 -36 -90 -80z m95 -97
c-2 -16 -6 -57 -10 -93 -4 -36 -8 -66 -10 -68 -4 -5 -105 43 -102 49 2 6 121
139 124 139 1 0 0 -12 -2 -27z"/>
<path d="M5056 5802 c-137 -175 -236 -303 -236 -306 0 -2 21 -19 46 -39 l46
-36 60 75 c33 41 64 71 70 68 8 -5 6 -53 -7 -124 -1 -8 -6 -37 -9 -65 l-7 -50
61 -32 c37 -20 60 -28 60 -20 0 6 5 44 11 82 5 39 11 83 11 98 1 28 2 28 49
22 105 -15 186 78 165 190 -8 42 -51 87 -162 172 l-82 62 -76 -97z m184 -146
c17 -21 5 -62 -24 -81 -28 -18 -56 -10 -104 30 l-31 26 35 50 36 49 37 -30
c21 -16 44 -36 51 -44z"/>
<path d="M1851 5828 c-51 -9 -86 -28 -196 -111 l-83 -61 96 -126 c53 -69 121
-156 150 -195 30 -38 57 -71 62 -73 11 -4 186 134 208 165 62 89 71 165 30
253 -53 115 -149 169 -267 148z m87 -127 c55 -30 96 -113 81 -165 -8 -30 -88
-116 -107 -116 -9 0 -160 193 -169 216 -4 11 62 63 97 77 19 7 76 0 98 -12z"/>
<path d="M1312 5385 c-18 -25 -32 -48 -32 -50 0 -3 52 -44 115 -91 103 -78
138 -111 103 -99 -15 5 -92 11 -248 21 l-105 6 -32 -46 c-18 -26 -33 -50 -32
-54 0 -9 385 -302 396 -302 4 1 23 22 42 47 38 52 40 44 -33 98 -15 11 -62 46
-104 78 l-77 59 78 -6 c43 -3 118 -8 165 -12 48 -3 93 -7 100 -10 21 -6 107
97 91 109 -2 2 -89 70 -192 150 -104 81 -192 147 -196 147 -4 0 -22 -20 -39
-45z"/>
<path d="M5675 5103 c-82 -52 -178 -112 -212 -134 l-63 -39 66 -103 c109 -169
156 -204 237 -178 53 18 88 61 89 109 0 39 1 40 22 27 17 -11 30 -11 69 -1 59
16 84 39 98 89 8 32 8 48 -5 79 -15 39 -132 235 -144 242 -4 2 -74 -39 -157
-91z m172 -109 c13 -21 23 -49 23 -61 0 -28 -42 -57 -68 -49 -19 6 -72 76 -72
94 0 12 72 61 85 58 6 -1 20 -20 32 -42z m-164 -103 c31 -57 33 -77 10 -103
-30 -33 -59 -23 -98 34 -19 29 -35 56 -35 60 0 6 79 58 90 58 3 0 17 -22 33
-49z"/>
<path d="M3659 5056 c-2 -2 -26 -6 -54 -10 -27 -3 -111 -21 -185 -40 -74 -19
-160 -37 -190 -41 -100 -12 -91 4 -93 -160 -1 -117 5 -133 45 -129 110 11 150
17 254 34 64 11 150 22 192 26 42 4 83 11 90 17 17 13 17 278 0 295 -11 11
-50 17 -59 8z"/>
<path d="M900 4764 c-11 -26 -20 -52 -20 -59 0 -7 63 -39 141 -71 167 -70 193
-91 186 -149 -8 -54 -45 -87 -91 -80 -18 3 -95 32 -172 64 l-139 58 -22 -51
c-12 -28 -18 -54 -15 -57 18 -16 302 -128 336 -132 75 -10 167 41 197 109 32
72 35 132 9 187 -35 75 -55 87 -357 213 l-32 14 -21 -46z"/>
<path d="M4258 4660 c-25 -5 -118 -28 -205 -53 -187 -53 -195 -55 -259 -62
-27 -4 -53 -10 -57 -14 -4 -4 -6 -70 -5 -147 l3 -139 55 1 c66 0 133 9 220 29
102 24 282 55 316 55 51 0 54 11 54 170 0 100 -4 150 -12 158 -13 13 -39 14
-110 2z"/>
<path d="M3365 4509 c-22 -4 -58 -9 -80 -12 -55 -8 -169 -32 -295 -63 -58 -14
-112 -27 -120 -29 -170 -36 -239 -47 -319 -52 -53 -3 -102 -10 -108 -16 -15
-11 -19 -473 -4 -496 7 -10 27 -12 87 -7 128 10 183 18 379 56 55 11 111 22
125 25 213 42 288 53 405 61 60 4 94 11 101 20 12 15 19 471 8 507 -5 15 -16
18 -72 16 -37 -2 -85 -6 -107 -10z"/>
<path d="M5692 4471 c-9 -5 -7 -22 6 -62 18 -51 21 -54 53 -56 19 0 41 -1 51
-2 11 -1 25 -28 47 -91 l30 -91 -34 -22 c-45 -29 -48 -39 -29 -103 l16 -55 41
34 c23 18 116 91 207 162 91 70 167 129 169 131 8 7 -33 134 -43 135 -25 3
-131 8 -301 14 -99 3 -185 8 -191 10 -6 2 -16 0 -22 -4z m402 -131 c13 0 -2
-15 -45 -46 -101 -71 -97 -71 -109 -22 -6 24 -13 50 -16 59 -4 13 7 15 73 12
43 -1 87 -2 97 -3z"/>
<path d="M4583 4194 c-71 -12 -177 -34 -238 -49 -60 -15 -117 -28 -125 -30 -8
-2 -55 -12 -105 -23 -112 -25 -190 -37 -318 -47 -27 -2 -52 -6 -55 -10 -10
-10 -10 -498 0 -518 8 -16 19 -18 101 -13 51 4 103 8 117 11 14 2 42 7 64 10
21 3 41 7 45 9 3 2 31 7 61 11 30 4 58 9 61 11 3 2 20 6 37 9 17 3 89 18 159
34 181 42 330 69 391 70 66 2 67 8 66 281 0 135 -4 251 -8 258 -10 17 -93 12
-253 -14z"/>
<path d="M6227 3864 c-1 -1 -63 -5 -137 -8 -178 -9 -221 -13 -228 -21 -4 -3
-5 -23 -4 -43 6 -74 -1 -70 140 -66 70 3 135 6 145 8 34 8 16 -11 -80 -79 -53
-38 -118 -87 -145 -108 -48 -37 -49 -39 -44 -85 2 -26 5 -52 5 -59 1 -7 19
-10 54 -8 94 6 323 19 430 24 26 1 27 3 23 49 -2 26 -4 53 -5 60 -1 11 -32 12
-158 7 l-158 -7 105 76 c58 42 126 91 152 109 46 31 47 33 44 77 -2 25 -4 53
-5 63 -1 15 -10 17 -67 15 -36 -2 -66 -4 -67 -4z"/>
<path d="M642 3803 c1 -25 -13 -243 -17 -270 -2 -13 -1 -23 3 -24 23 -3 103
-8 212 -13 69 -4 162 -9 208 -11 79 -5 82 -4 83 18 2 66 8 170 14 228 l6 65
-51 3 c-27 1 -50 -2 -51 -6 -4 -35 -8 -77 -10 -126 l-2 -58 -56 3 -56 3 1 88
c0 84 0 87 -23 88 -13 1 -33 2 -45 2 -22 1 -23 -3 -28 -83 l-5 -85 -40 0 c-60
-1 -66 3 -61 39 3 17 8 54 12 81 3 28 8 53 10 56 6 11 -24 19 -66 19 -31 0
-39 -4 -38 -17z"/>
<path d="M3447 3784 c-1 -2 -26 -4 -55 -5 -29 -2 -57 -8 -63 -15 -7 -9 -11
-177 -10 -516 0 -277 -2 -511 -5 -520 -6 -20 -23 -14 -59 19 -11 10 -63 56
-115 103 -52 47 -101 91 -108 98 -22 20 -45 29 -72 27 -21 -2 -98 -15 -122
-21 -5 -1 -14 -2 -21 -3 -7 0 -21 -7 -31 -14 -16 -12 6 -37 234 -266 278 -279
296 -304 304 -420 3 -35 10 -69 16 -75 15 -15 175 -17 196 -2 15 11 17 44 19
302 1 282 2 290 25 338 17 36 84 110 238 265 170 171 212 219 204 231 -11 18
-3 18 -206 -11 l-79 -12 -85 -84 c-55 -54 -88 -81 -94 -75 -6 6 -10 135 -10
323 -1 195 -5 319 -11 327 -8 10 -81 15 -90 6z"/>
<path d="M3007 3724 c-1 -1 -34 -5 -73 -8 -40 -4 -96 -11 -125 -16 -120 -20
-235 -41 -249 -45 -8 -2 -35 -7 -60 -10 -24 -4 -47 -8 -50 -10 -3 -2 -30 -6
-60 -10 -30 -4 -57 -8 -60 -10 -3 -2 -30 -6 -60 -10 -30 -3 -67 -8 -81 -10
-14 -3 -63 -7 -109 -10 -87 -5 -111 -15 -105 -43 1 -9 6 -64 10 -122 3 -58 8
-121 10 -140 2 -19 7 -73 10 -120 10 -131 14 -153 27 -161 7 -4 15 -6 18 -4 3
2 39 6 80 9 102 8 171 22 450 91 80 19 157 38 173 40 15 3 58 12 96 20 38 8
104 17 147 21 94 7 121 11 133 18 14 9 11 513 -3 525 -8 7 -111 11 -119 5z"/>
<path d="M4865 3469 c-22 -4 -56 -10 -75 -14 -19 -3 -100 -21 -180 -40 -179
-41 -237 -52 -319 -60 -35 -3 -67 -8 -72 -11 -12 -7 -11 -385 0 -403 13 -20
150 -9 361 29 58 11 128 22 155 26 28 3 52 7 55 9 3 2 41 6 85 9 44 4 95 9
113 12 l33 5 -1 211 c-1 115 -4 217 -7 224 -6 16 -71 17 -148 3z"/>
<path d="M848 3263 c-62 -16 -109 -50 -145 -104 -35 -53 -41 -145 -19 -270 23
-126 18 -119 63 -109 21 5 130 25 242 44 112 20 206 38 208 40 3 2 -2 42 -11
88 -8 45 -18 99 -21 118 -19 111 -118 196 -237 204 -15 1 -51 -4 -80 -11z
m150 -138 c34 -21 48 -46 60 -116 l9 -46 -96 -18 c-53 -10 -105 -19 -116 -21
-11 -2 -32 -6 -47 -9 -21 -5 -28 -2 -33 15 -23 72 0 166 46 191 58 31 128 32
177 4z"/>
<path d="M5842 3143 c-6 -31 -8 -60 -4 -64 4 -4 30 -9 57 -12 28 -3 84 -11
125 -17 41 -6 93 -13 115 -17 22 -3 74 -11 115 -18 41 -7 78 -10 82 -6 5 4 11
33 14 64 l6 57 -31 1 c-17 1 -34 2 -38 3 -5 1 -35 6 -68 11 -33 4 -67 9 -75
10 -8 2 -37 6 -65 9 -27 4 -57 9 -65 11 -8 2 -40 7 -70 10 -30 3 -62 8 -70 10
-12 4 -19 -8 -28 -52z"/>
<path d="M2595 2892 c-11 -2 -51 -13 -90 -24 -75 -22 -92 -26 -114 -27 -10 -1
-12 -17 -6 -78 4 -43 9 -81 11 -84 5 -8 39 -4 149 19 l90 19 0 82 c0 86 -6
100 -40 93z"/>
<path d="M5775 2834 c-9 -31 -13 -60 -8 -64 7 -6 462 -140 477 -140 4 0 26 92
26 110 0 5 -33 19 -72 30 -40 12 -86 26 -103 31 -16 5 -84 25 -150 44 -66 20
-128 38 -137 41 -13 4 -20 -7 -33 -52z"/>
<path d="M3862 2826 c-63 -18 -118 -39 -123 -47 -5 -8 -9 -49 -9 -91 0 -72 2
-78 23 -82 12 -3 78 7 147 22 l125 27 0 100 c0 99 0 100 -25 102 -14 1 -76
-13 -138 -31z"/>
<path d="M1188 2148 l-47 -30 31 -49 c16 -27 33 -51 37 -53 9 -6 101 53 101
65 0 15 -55 98 -65 98 -5 0 -31 -14 -57 -31z"/>
<path d="M5722 2147 c-6 -12 -20 -36 -32 -53 l-20 -32 50 -32 c57 -36 56 -37
95 37 21 38 16 48 -43 81 l-39 22 -11 -23z"/>
<path d="M5194 1822 c-28 -26 -82 -74 -120 -107 -37 -33 -81 -71 -96 -85 l-28
-25 34 -36 33 -36 49 44 c27 23 52 43 56 43 4 0 13 -8 20 -19 11 -16 58 -68
213 -238 l40 -45 47 38 46 38 -25 30 c-14 17 -65 74 -113 126 -48 52 -98 108
-112 124 l-24 28 50 48 50 47 -35 37 -34 36 -51 -48z"/>
<path d="M1699 1788 c-30 -34 -61 -68 -70 -77 -32 -33 -209 -230 -209 -233 0
-2 21 -21 46 -42 l46 -38 60 66 60 66 54 -50 c58 -52 98 -67 160 -57 98 16
159 127 121 220 -13 29 -191 207 -207 207 -4 0 -31 -28 -61 -62z m123 -113
c36 -33 45 -68 24 -99 -30 -46 -69 -42 -128 14 -18 16 -16 19 23 63 22 26 44
47 47 47 4 0 19 -11 34 -25z"/>
<path d="M4688 1447 c-55 -26 -85 -52 -104 -89 -28 -54 -11 -131 40 -177 30
-28 87 -33 209 -17 72 9 97 0 97 -34 0 -41 -66 -62 -103 -32 -14 12 -117 -43
-117 -62 0 -18 29 -42 69 -59 71 -30 197 18 248 94 33 50 29 112 -11 164 -45
59 -88 69 -204 50 -86 -15 -110 -11 -118 21 -11 44 34 73 74 47 21 -13 27 -12
75 15 29 16 52 35 52 43 0 7 -15 24 -34 36 -44 30 -110 30 -173 0z"/>
<path d="M2198 1429 c-182 -43 -263 -276 -144 -415 80 -93 208 -124 309 -75
152 73 200 264 101 396 -54 72 -177 116 -266 94z m138 -134 c76 -50 72 -163
-8 -230 -73 -62 -209 2 -208 97 1 30 36 107 58 125 52 43 102 45 158 8z"/>
<path d="M2740 1234 c0 -2 -23 -102 -51 -221 -28 -120 -52 -231 -53 -247 -1
-27 2 -29 89 -52 162 -43 256 -36 321 23 44 39 66 87 79 170 10 61 9 79 -4
118 -22 61 -61 109 -113 134 -41 20 -268 84 -268 75z m205 -173 c74 -41 84
-161 19 -227 -31 -31 -45 -36 -94 -37 -26 -1 -100 14 -100 21 0 3 14 66 32
139 l32 134 41 -6 c22 -4 54 -15 70 -24z"/>
<path d="M4153 1213 c-23 -8 -44 -22 -47 -31 -3 -9 -8 -66 -11 -127 -11 -191
-15 -258 -20 -328 -5 -62 -4 -68 12 -63 10 2 37 10 61 16 23 6 43 14 43 18 1
4 2 24 3 44 1 21 6 42 11 47 11 10 144 51 166 51 8 0 24 -16 37 -35 12 -19 26
-35 30 -35 4 0 33 8 66 18 l59 17 -159 213 c-174 233 -164 225 -251 195z m124
-226 c31 -39 40 -59 31 -62 -44 -16 -101 -35 -105 -35 -6 0 -1 172 5 184 3 5
9 0 15 -10 6 -11 30 -45 54 -77z"/>
<path d="M3500 1109 c-138 -26 -214 -187 -164 -345 21 -66 75 -126 131 -145
84 -27 196 -11 261 39 35 27 86 118 76 134 -3 5 -29 8 -58 6 -45 -3 -58 -9
-89 -41 -32 -31 -44 -37 -82 -37 -58 0 -71 6 -96 46 -26 42 -33 136 -14 174
41 78 133 90 196 25 25 -25 39 -32 63 -30 17 2 43 3 59 4 19 1 27 6 27 19 0
26 -70 113 -109 136 -39 22 -126 29 -201 15z"/>
</g>
</svg>
