<?xml version="1.0" encoding="utf-8"?>
<!-- Generator: Adobe Illustrator 22.1.0, SVG Export Plug-In . SVG Version: 6.00 Build 0)  -->
<svg version="1.0" id="Layer_1" xmlns="http://www.w3.org/2000/svg" xmlns:xlink="http://www.w3.org/1999/xlink" x="0px" y="0px"
	 viewBox="0 0 252.3 68.2" style="enable-background:new 0 0 252.3 68.2;" xml:space="preserve">
<style type="text/css">
	.st0{fill:#FFCE00;}
	.st1{fill:#FFFFFF;}
	.st2{fill:#4F4E48;}
</style>
<path class="st0" d="M125.2,53c0,8.4-6.8,15.2-15.2,15.2H15.2C6.8,68.2,0,61.4,0,53V15.2C0,6.8,6.8,0,15.2,0H110
	c8.4,0,15.2,6.8,15.2,15.2V53z"/>
<path class="st1" d="M39.6,41.5l4.4-4.4c2.3-2.7,3.6-6.1,3.6-9.7c0-1.9-0.5-8.5-7.1-12.6c0,0,0,0,0,0c-2.4-1.5-5-2.2-7.8-2.2H19.9
	c-3.6,0-7.3,2.7-7.3,7.1v29.1c0,1,0.1,1.6,0.3,2.3c0,0.1,0,0.1,0,0.2c1.6,4.7,5.7,5,7,5c3.3,0,5.6-0.6,8.6-3.6l4.3-4.3l6.5,6.5
	c1.8,1.8,5,1.8,6.8,0c0.9-0.9,1.4-2.1,1.4-3.4c0-1.3-0.5-2.5-1.4-3.4L39.6,41.5z M14.8,50.8c-0.2-0.6-0.3-1-0.3-2V19.7
	c0-3.4,2.8-5.2,5.4-5.2h12.8c2.3,0,4.6,0.6,6.6,1.9c2.6,2.7,3.3,7.6,0.5,11.1c0,0,0,0,0-0.1c0-4-3.2-7.2-7.2-7.2h-9.6
	c-1.4,0-2.8,1.1-2.9,2.8c0,0,0,0,0,0c0,0,0,0.1,0,0.1v24l-3.8,3.7c-0.1,0.1-0.5,0.3-0.9,0.3C15.4,51.3,15.1,51.2,14.8,50.8z
	 M37.9,27.4c0,1.2-0.4,2.3-1,3.1l-0.1,0.1c0,0,0,0,0,0c-0.8,0.8-8.9,8.8-14.6,14.5V23.3c0,0,0-0.1,0-0.1c0-0.7,0.7-0.9,0.9-0.9h9.6
	C35.6,22.2,37.9,24.6,37.9,27.4z M44.7,53.4c-1.1,1.1-3,1.1-4.1,0l-7.2-7.2C33.3,46.1,33,46,32.8,46c-0.3,0-0.5,0.1-0.7,0.3l-5,5
	c-2.6,2.6-4.3,3-7.2,3c-0.8,0-2.2-0.2-3.5-1.2c0.6-0.1,1.1-0.4,1.5-0.8c0.5-0.5,20.4-20.3,20.4-20.3c0,0,0,0,0.1-0.1l2.3-2.3
	c2.7-2.7,3.4-6.3,2.7-9.4c2,3,2.3,6.1,2.3,7.3c0,3.1-1.1,6.1-3.1,8.4l-5,5c-0.4,0.4-0.4,1,0,1.4l7.2,7.2c0.5,0.5,0.8,1.3,0.8,2
	S45.2,52.9,44.7,53.4z"/>
<g>
	<path class="st1" d="M80.1,21.2c-1.1,0-1.9-0.9-1.9-1.9v-2.9c0-1.1,0.9-1.9,1.9-1.9c1.1,0,1.9,0.9,1.9,1.9v2c0,0.5,0.4,0.9,0.9,0.9
		c0.5,0,0.9-0.4,0.9-0.9v-2c0-2.1-1.7-3.8-3.8-3.8c-2.1,0-3.8,1.7-3.8,3.8v2.9c0,2.1,1.7,3.8,3.8,3.8c1.1,0,1.9,0.9,1.9,1.9v2.9
		c0,1.1-0.9,1.9-1.9,1.9c-1.1,0-1.9-0.9-1.9-1.9l0-2c0-0.5-0.4-0.9-0.9-0.9c-0.5,0-0.9,0.4-0.9,0.9v2c0,2.1,1.7,3.8,3.8,3.8
		c2.1,0,3.8-1.7,3.8-3.8l0-2.9C83.9,22.9,82.2,21.2,80.1,21.2z"/>
	<path class="st1" d="M57.2,12.7h-2.9c-0.5,0-0.9,0.4-0.9,0.9v17.1c0,0.5,0.4,0.9,0.9,0.9l2.9,0c2.1,0,3.8-1.7,3.8-3.8V16.4
		C61,14.4,59.3,12.7,57.2,12.7z M55.3,29.8V14.5h1.9c1.1,0,1.9,0.9,1.9,1.9v11.4c0,0.5-0.2,1-0.6,1.4c-0.4,0.4-0.8,0.6-1.4,0.6H55.3
		z"/>
	<path class="st1" d="M57.2,37.1c-2.1,0-3.8,1.7-3.8,3.8v2.9c0,2.1,1.7,3.8,3.8,3.8c1.1,0,1.9,0.9,1.9,1.9l0,2.9
		c0,1.1-0.9,1.9-1.9,1.9c-1.1,0-1.9-0.9-1.9-1.9v-2c0-0.5-0.4-0.9-0.9-0.9c-0.5,0-0.9,0.4-0.9,0.9v2c0,2.1,1.7,3.8,3.8,3.8
		c2.1,0,3.8-1.7,3.8-3.8v-2.9c0-2.1-1.7-3.8-3.8-3.8c-1.1,0-1.9-0.9-1.9-1.9v-2.9c0-1.1,0.9-1.9,1.9-1.9c1.1,0,1.9,0.9,1.9,1.9v2
		c0,0.5,0.4,0.9,0.9,0.9c0.5,0,0.9-0.4,0.9-0.9v-2C61,38.8,59.3,37.1,57.2,37.1z"/>
	<path class="st1" d="M108.6,37.1c-2.1,0-3.8,1.7-3.8,3.8v11.4c0,2.1,1.7,3.8,3.8,3.8s3.8-1.7,3.8-3.8V40.9
		C112.4,38.8,110.7,37.1,108.6,37.1z M106.7,40.9c0-1.1,0.9-1.9,1.9-1.9c1.1,0,1.9,0.9,1.9,1.9v11.4c0,1.1-0.9,1.9-1.9,1.9
		c-1.1,0-1.9-0.9-1.9-1.9V40.9z"/>
	<path class="st1" d="M68.7,12.7c-2.1,0-3.8,1.7-3.8,3.8v11.4c0,2.1,1.7,3.8,3.8,3.8s3.8-1.7,3.8-3.8v-2c0-0.5-0.4-0.9-0.9-0.9
		c-0.5,0-0.9,0.4-0.9,0.9v2c0,1.1-0.9,1.9-1.9,1.9c-1.1,0-1.9-0.9-1.9-1.9v-4.8l1.1,0c0.5,0,0.9-0.4,0.9-0.9c0-0.5-0.4-0.9-0.9-0.9
		h-1.1v-4.8c0-1.1,0.9-1.9,1.9-1.9c1.1,0,1.9,0.9,1.9,1.9l0,2c0,0.5,0.4,0.9,0.9,0.9c0.5,0,0.9-0.4,0.9-0.9v-2
		C72.4,14.4,70.7,12.7,68.7,12.7z"/>
	<path class="st1" d="M101,27.9v-6.5c0,0,0-0.1,0-0.1c0,0-0.1,0-0.1,0H98c-0.5,0-0.9,0.4-0.9,0.9c0,0.5,0.4,0.9,0.9,0.9h1.1v4.8
		c0,1.1-0.9,1.9-1.9,1.9c-1.1,0-1.9-0.9-1.9-1.9V16.4c0-1.1,0.9-1.9,1.9-1.9c1.1,0,1.9,0.9,1.9,1.9l0,2c0,0.5,0.4,0.9,0.9,0.9
		c0.5,0,0.9-0.4,0.9-0.9v-2c0-2.1-1.7-3.8-3.8-3.8c-2.1,0-3.8,1.7-3.8,3.8v11.4c0,2.1,1.7,3.8,3.8,3.8C99.3,31.6,101,29.9,101,27.9z
		"/>
	<path class="st1" d="M91.5,37.1l-2.9,0c-0.5,0-0.9,0.4-0.9,0.9v17.1c0,0.5,0.4,0.9,0.9,0.9l2.9,0c2.1,0,3.8-1.7,3.8-3.8V40.9
		C95.3,38.8,93.6,37.1,91.5,37.1z M89.6,54.2V39h1.9c1.1,0,1.9,0.9,1.9,1.9v11.4c0,0.5-0.2,1-0.6,1.4c-0.4,0.4-0.8,0.6-1.4,0.6H89.6
		z"/>
	<path class="st1" d="M71.5,37.1h-5.7c-0.5,0-0.9,0.4-0.9,0.9c0,0.5,0.4,0.9,0.9,0.9h1.9l0,16.2c0,0.5,0.4,0.9,0.9,0.9
		c0.5,0,0.9-0.4,0.9-0.9V39h1.9c0.5,0,0.9-0.4,0.9-0.9C72.4,37.5,72,37.1,71.5,37.1z"/>
	<path class="st1" d="M82.9,37.1c-0.5,0-0.9,0.4-0.9,0.9v14.3c0,1.1-0.9,1.9-1.9,1.9c-1.1,0-1.9-0.9-1.9-1.9l0-14.3
		c0-0.5-0.4-0.9-0.9-0.9c-0.5,0-0.9,0.4-0.9,0.9v14.3c0,2.1,1.7,3.8,3.8,3.8c2.1,0,3.8-1.7,3.8-3.8V38
		C83.9,37.5,83.4,37.1,82.9,37.1z"/>
	<path class="st1" d="M88.6,31.6c0.5,0,0.9-0.4,0.9-0.9V13.6c0-0.5-0.4-0.9-0.9-0.9c-0.5,0-0.9,0.4-0.9,0.9v17.1
		C87.7,31.2,88.1,31.6,88.6,31.6z"/>
	<path class="st1" d="M101,38c0-0.5-0.4-0.9-0.9-0.9c-0.5,0-0.9,0.4-0.9,0.9l0,17.1c0,0.5,0.4,0.9,0.9,0.9c0.5,0,0.9-0.4,0.9-0.9V38
		z"/>
	<path class="st1" d="M111.5,12.7c-0.5,0-0.9,0.4-0.9,0.9v3.5l-3.9-3.9l-0.2-0.2c-0.2-0.2-0.4-0.4-0.7-0.4c-0.5,0-0.9,0.4-0.9,0.9
		v17.1c0,0.5,0.4,0.9,0.9,0.9c0.5,0,0.9-0.4,0.9-0.9V15.9l3.9,3.8v11c0,0.5,0.4,0.9,0.9,0.9c0.5,0,0.9-0.4,0.9-0.9V13.6
		C112.4,13.1,112,12.7,111.5,12.7z"/>
</g>
<path class="st2" d="M252.3,53c0,8.4-6.8,15.2-15.2,15.2h-94.8c-8.4,0-15.2-6.8-15.2-15.2V15.2C127.2,6.8,134,0,142.4,0h94.8
	c8.4,0,15.2,6.8,15.2,15.2V53z"/>
<path class="st1" d="M166.7,41.5l4.4-4.4c2.3-2.7,3.6-6.1,3.6-9.7c0-1.9-0.5-8.5-7.1-12.6c0,0,0,0,0,0c-2.4-1.5-5-2.2-7.8-2.2H147
	c-3.6,0-7.3,2.7-7.3,7.1v29.1c0,1,0.1,1.6,0.3,2.3c0,0.1,0,0.1,0,0.2c1.6,4.7,5.7,5,7,5c3.3,0,5.6-0.6,8.6-3.6l4.3-4.3l6.5,6.5
	c1.8,1.8,5,1.8,6.8,0c0.9-0.9,1.4-2.1,1.4-3.4c0-1.3-0.5-2.5-1.4-3.4L166.7,41.5z M142,50.8c-0.2-0.6-0.3-1-0.3-2V19.7
	c0-3.4,2.8-5.2,5.4-5.2h12.8c2.3,0,4.6,0.6,6.6,1.9c2.6,2.7,3.3,7.6,0.5,11.1c0,0,0,0,0-0.1c0-4-3.2-7.2-7.2-7.2h-9.6
	c-1.4,0-2.8,1.1-2.9,2.8c0,0,0,0,0,0c0,0,0,0.1,0,0.1v24l-3.8,3.7c-0.1,0.1-0.5,0.3-0.9,0.3C142.6,51.3,142.3,51.2,142,50.8z
	 M165.1,27.4c0,1.2-0.4,2.3-1,3.1l-0.1,0.1c0,0,0,0,0,0c-0.8,0.8-8.9,8.8-14.6,14.5V23.3c0,0,0-0.1,0-0.1c0-0.7,0.7-0.9,0.9-0.9h9.6
	C162.7,22.2,165.1,24.6,165.1,27.4z M171.8,53.4c-1.1,1.1-3,1.1-4.1,0l-7.2-7.2c-0.2-0.2-0.4-0.3-0.7-0.3c-0.3,0-0.5,0.1-0.7,0.3
	l-5,5c-2.6,2.6-4.3,3-7.2,3c-0.8,0-2.2-0.2-3.5-1.2c0.6-0.1,1.1-0.4,1.5-0.8c0.5-0.5,20.4-20.3,20.4-20.3c0,0,0,0,0.1-0.1l2.3-2.3
	c2.7-2.7,3.4-6.3,2.7-9.4c2,3,2.3,6.1,2.3,7.3c0,3.1-1.1,6.1-3.1,8.4l-5,5c-0.4,0.4-0.4,1,0,1.4l7.2,7.2c0.5,0.5,0.8,1.3,0.8,2
	S172.4,52.9,171.8,53.4z"/>
<g>
	<path class="st1" d="M207.3,21.2c-1.1,0-1.9-0.9-1.9-1.9v-2.9c0-1.1,0.9-1.9,1.9-1.9c1.1,0,1.9,0.9,1.9,1.9v2
		c0,0.5,0.4,0.9,0.9,0.9c0.5,0,0.9-0.4,0.9-0.9v-2c0-2.1-1.7-3.8-3.8-3.8c-2.1,0-3.8,1.7-3.8,3.8v2.9c0,2.1,1.7,3.8,3.8,3.8
		c1.1,0,1.9,0.9,1.9,1.9v2.9c0,1.1-0.9,1.9-1.9,1.9c-1.1,0-1.9-0.9-1.9-1.9l0-2c0-0.5-0.4-0.9-0.9-0.9c-0.5,0-0.9,0.4-0.9,0.9v2
		c0,2.1,1.7,3.8,3.8,3.8c2.1,0,3.8-1.7,3.8-3.8l0-2.9C211,22.9,209.3,21.2,207.3,21.2z"/>
	<path class="st1" d="M184.4,12.7h-2.9c-0.5,0-0.9,0.4-0.9,0.9v17.1c0,0.5,0.4,0.9,0.9,0.9l2.9,0c2.1,0,3.8-1.7,3.8-3.8V16.4
		C188.2,14.4,186.5,12.7,184.4,12.7z M182.5,29.8V14.5h1.9c1.1,0,1.9,0.9,1.9,1.9v11.4c0,0.5-0.2,1-0.6,1.4
		c-0.4,0.4-0.8,0.6-1.4,0.6H182.5z"/>
	<path class="st1" d="M184.4,37.1c-2.1,0-3.8,1.7-3.8,3.8v2.9c0,2.1,1.7,3.8,3.8,3.8c1.1,0,1.9,0.9,1.9,1.9l0,2.9
		c0,1.1-0.9,1.9-1.9,1.9c-1.1,0-1.9-0.9-1.9-1.9v-2c0-0.5-0.4-0.9-0.9-0.9c-0.5,0-0.9,0.4-0.9,0.9v2c0,2.1,1.7,3.8,3.8,3.8
		c2.1,0,3.8-1.7,3.8-3.8v-2.9c0-2.1-1.7-3.8-3.8-3.8c-1.1,0-1.9-0.9-1.9-1.9v-2.9c0-1.1,0.9-1.9,1.9-1.9c1.1,0,1.9,0.9,1.9,1.9v2
		c0,0.5,0.4,0.9,0.9,0.9s0.9-0.4,0.9-0.9v-2C188.2,38.8,186.5,37.1,184.4,37.1z"/>
	<path class="st1" d="M235.8,37.1c-2.1,0-3.8,1.7-3.8,3.8v11.4c0,2.1,1.7,3.8,3.8,3.8s3.8-1.7,3.8-3.8V40.9
		C239.6,38.8,237.9,37.1,235.8,37.1z M233.9,40.9c0-1.1,0.9-1.9,1.9-1.9s1.9,0.9,1.9,1.9v11.4c0,1.1-0.9,1.9-1.9,1.9
		s-1.9-0.9-1.9-1.9V40.9z"/>
	<path class="st1" d="M195.8,12.7c-2.1,0-3.8,1.7-3.8,3.8v11.4c0,2.1,1.7,3.8,3.8,3.8c2.1,0,3.8-1.7,3.8-3.8v-2
		c0-0.5-0.4-0.9-0.9-0.9c-0.5,0-0.9,0.4-0.9,0.9v2c0,1.1-0.9,1.9-1.9,1.9c-1.1,0-1.9-0.9-1.9-1.9v-4.8l1.1,0c0.5,0,0.9-0.4,0.9-0.9
		c0-0.5-0.4-0.9-0.9-0.9h-1.1v-4.8c0-1.1,0.9-1.9,1.9-1.9c1.1,0,1.9,0.9,1.9,1.9l0,2c0,0.5,0.4,0.9,0.9,0.9c0.5,0,0.9-0.4,0.9-0.9
		v-2C199.6,14.4,197.9,12.7,195.8,12.7z"/>
	<path class="st1" d="M228.2,27.9v-6.5c0,0,0-0.1,0-0.1c0,0-0.1,0-0.1,0h-2.9c-0.5,0-0.9,0.4-0.9,0.9c0,0.5,0.4,0.9,0.9,0.9h1.1v4.8
		c0,1.1-0.9,1.9-1.9,1.9c-1.1,0-1.9-0.9-1.9-1.9V16.4c0-1.1,0.9-1.9,1.9-1.9c1.1,0,1.9,0.9,1.9,1.9l0,2c0,0.5,0.4,0.9,0.9,0.9
		c0.5,0,0.9-0.4,0.9-0.9v-2c0-2.1-1.7-3.8-3.8-3.8c-2.1,0-3.8,1.7-3.8,3.8v11.4c0,2.1,1.7,3.8,3.8,3.8
		C226.5,31.6,228.2,29.9,228.2,27.9z"/>
	<path class="st1" d="M218.7,37.1l-2.9,0c-0.5,0-0.9,0.4-0.9,0.9v17.1c0,0.5,0.4,0.9,0.9,0.9l2.9,0c2.1,0,3.8-1.7,3.8-3.8V40.9
		C222.5,38.8,220.8,37.1,218.7,37.1z M216.7,54.2V39h1.9c1.1,0,1.9,0.9,1.9,1.9v11.4c0,0.5-0.2,1-0.6,1.4c-0.4,0.4-0.8,0.6-1.4,0.6
		H216.7z"/>
	<path class="st1" d="M198.7,37.1H193c-0.5,0-0.9,0.4-0.9,0.9c0,0.5,0.4,0.9,0.9,0.9h1.9l0,16.2c0,0.5,0.4,0.9,0.9,0.9
		c0.5,0,0.9-0.4,0.9-0.9V39h1.9c0.5,0,0.9-0.4,0.9-0.9C199.6,37.5,199.2,37.1,198.7,37.1z"/>
	<path class="st1" d="M210.1,37.1c-0.5,0-0.9,0.4-0.9,0.9v14.3c0,1.1-0.9,1.9-1.9,1.9c-1.1,0-1.9-0.9-1.9-1.9l0-14.3
		c0-0.5-0.4-0.9-0.9-0.9c-0.5,0-0.9,0.4-0.9,0.9v14.3c0,2.1,1.7,3.8,3.8,3.8c2.1,0,3.8-1.7,3.8-3.8V38
		C211,37.5,210.6,37.1,210.1,37.1z"/>
	<path class="st1" d="M215.8,31.6c0.5,0,0.9-0.4,0.9-0.9V13.6c0-0.5-0.4-0.9-0.9-0.9c-0.5,0-0.9,0.4-0.9,0.9v17.1
		C214.9,31.2,215.3,31.6,215.8,31.6z"/>
	<path class="st1" d="M228.2,38c0-0.5-0.4-0.9-0.9-0.9c-0.5,0-0.9,0.4-0.9,0.9l0,17.1c0,0.5,0.4,0.9,0.9,0.9c0.5,0,0.9-0.4,0.9-0.9
		V38z"/>
	<path class="st1" d="M238.7,12.7c-0.5,0-0.9,0.4-0.9,0.9v3.5l-3.9-3.9l-0.2-0.2c-0.2-0.2-0.4-0.4-0.7-0.4c-0.5,0-0.9,0.4-0.9,0.9
		v17.1c0,0.5,0.4,0.9,0.9,0.9c0.5,0,0.9-0.4,0.9-0.9V15.9l3.9,3.8v11c0,0.5,0.4,0.9,0.9,0.9c0.5,0,0.9-0.4,0.9-0.9V13.6
		C239.6,13.1,239.2,12.7,238.7,12.7z"/>
</g>
</svg>
