<?xml version="1.0" encoding="utf-8"?>
<!-- Generator: Adobe Illustrator 22.1.0, SVG Export Plug-In . SVG Version: 6.00 Build 0)  -->
<svg version="1.0" id="Layer_1" xmlns="http://www.w3.org/2000/svg" xmlns:xlink="http://www.w3.org/1999/xlink" x="0px" y="0px"
	 viewBox="0 0 104.2 104.2" style="enable-background:new 0 0 104.2 104.2;" xml:space="preserve">
<style type="text/css">
	.st0{fill:#FFFFFF;}
</style>
<g>
	<g>
		<path class="st0" d="M46.3,56.8c-5.5,0.1-10.5,2.6-15.9,2.8c-0.2,0-0.4-0.2-0.4-0.4l-0.6-7.9c0-0.2,0.2-0.4,0.4-0.4
			c5.5-0.1,11-2.1,16.5-2.2c0.2,0,0.4,0.2,0.4,0.4v7.3C46.7,56.6,46.6,56.8,46.3,56.8z"/>
		<path class="st0" d="M52.4,44.9C46.9,45.1,42,47,36.6,47.2c-0.2,0-0.4-0.2-0.4-0.4v-6.9c0-0.2,0.2-0.4,0.4-0.4
			c5.5-0.1,10.4-2.5,15.8-2.6c0.2,0,0.4,0.2,0.4,0.4v7.3C52.8,44.8,52.6,44.9,52.4,44.9z"/>
		<path class="st0" d="M74.3,59.2c-4,0.1-7.3,1.3-11.2,1.4c-0.2,0-0.4-0.2-0.4-0.4v-5.5c0-0.2,0.2-0.4,0.4-0.4
			c4-0.1,7.3-1.8,11.2-1.9c0.2,0,0.4,0.2,0.4,0.4v6C74.8,59,74.6,59.2,74.3,59.2z"/>
		<path class="st0" d="M39.1,63.8c-1,0.1-2.2,0.5-3.2,0.6c-0.2,0-0.3-0.1-0.3-0.3l-0.2-1.9c0-0.2,0.1-0.3,0.3-0.3
			c1-0.1,2.2-0.7,3.2-0.8c0.2,0,0.3,0.1,0.3,0.3l0.1,2.2C39.4,63.7,39.3,63.8,39.1,63.8z"/>
		<path class="st0" d="M59.6,64.8c-1.2,0.1-2.5,0.5-3.7,0.7c-0.2,0-0.4-0.2-0.4-0.4v-1.9c0-0.3,0.2-0.6,0.6-0.7
			c1.2-0.2,2.3-0.7,3.5-0.9c0.2,0,0.4,0.2,0.4,0.4v2.3C60,64.6,59.8,64.8,59.6,64.8z"/>
		<path class="st0" d="M64.8,39.7c-2.9,0.1-5.9,1.3-8.8,1.4c-0.2,0-0.5-0.2-0.5-0.4V37c0-0.2,0.2-0.4,0.4-0.4
			c2.9-0.1,5.9-1.8,8.8-1.9c0.2,0,0.5,0.2,0.5,0.4v4.1C65.2,39.5,65,39.7,64.8,39.7z"/>
		<path class="st0" d="M55.1,33.6c-2.7,0.1-5.3,0.9-8,1c-0.2,0-0.4-0.2-0.4-0.4v-3.4c0-0.2,0.2-0.4,0.4-0.4c2.7-0.1,5.3-1.4,8-1.5
			c0.2,0,0.4,0.2,0.4,0.4v3.9C55.5,33.4,55.3,33.5,55.1,33.6z"/>
		<path class="st0" d="M71.6,49.5C66.7,49.9,61.4,52,56,52.1c-0.2,0-0.4-0.2-0.4-0.4v-7.3c0-0.2,0.2-0.4,0.4-0.4
			c5.5-0.1,10.2-2.5,15.7-2.6c0.2,0,0.4,0.2,0.4,0.4v7.3C72,49.3,71.9,49.5,71.6,49.5z"/>
		<path class="st0" d="M59.6,54.7L56,55.2c-0.2,0-0.4,0.1-0.6,0.3l-2.1,2.1c-0.2,0.2-0.5,0.1-0.5-0.2v-9.2c0-0.2-0.2-0.4-0.4-0.4
			L49.9,48c-0.3,0-0.5,0.3-0.5,0.5v15c0,0.3-0.3,0.4-0.5,0.2c0,0-3-2.6-3.9-3.5c-0.2-0.2-0.5-0.3-0.8-0.3c-1.2,0.1-2,0.3-2.7,0.5
			c-0.2,0.1-0.3,0.4-0.1,0.5l6.8,6.8c0.8,0.8,1.3,1.9,1.3,3v0.7c0,0.3,0.3,0.6,0.6,0.6h2.2c0.3,0,0.6-0.3,0.6-0.6v-7.4
			c0-1.1,0.5-2.2,1.3-3l5.8-5.8C60.1,55.1,59.9,54.7,59.6,54.7z"/>
	</g>
	<g>
		<path class="st0" d="M15,55.7c0.6,0.2,1.1,0.6,1.6,1.1c0.4,0.5,0.7,1.2,0.8,2l0.5,2.8l-7.4,1.3l-0.5-2.8c-0.1-0.8-0.1-1.5,0.1-2.2
			c0.2-0.6,0.6-1.2,1.1-1.6s1.1-0.7,1.9-0.8C13.7,55.4,14.3,55.5,15,55.7z M14.9,57.7c-0.4-0.3-1-0.4-1.7-0.3
			c-0.7,0.1-1.2,0.4-1.5,0.9c-0.3,0.5-0.4,1-0.3,1.7l0.2,0.9l4.3-0.8l-0.2-0.9C15.7,58.5,15.4,58,14.9,57.7z"/>
		<path class="st0" d="M10.7,50.2l1.6,0.1l0.1-2.6l1.4,0.1l-0.1,2.6l1.7,0.1l0.2-2.9l1.5,0.1l-0.3,4.7l-7.5-0.4l0.3-4.7l1.5,0.1
			L10.7,50.2z"/>
		<path class="st0" d="M12,36.8l4,1.7c0.5,0.2,0.9,0.2,1.2,0.1c0.3-0.1,0.6-0.4,0.7-0.8c0.2-0.4,0.2-0.7,0-1.1
			c-0.2-0.3-0.5-0.6-0.9-0.7l-4-1.7l0.7-1.7l4,1.7c0.7,0.3,1.2,0.6,1.5,1.1s0.5,0.9,0.6,1.5c0,0.5-0.1,1.1-0.3,1.6
			c-0.2,0.6-0.5,1-1,1.3c-0.4,0.3-0.9,0.5-1.4,0.6c-0.6,0.1-1.2-0.1-1.8-0.3l-4-1.7L12,36.8z"/>
		<path class="st0" d="M26,27.9l-1.1,1.5L19.4,29l3.7,2.8L22,33.3l-6-4.6l1.1-1.5l5.6,0.4l-3.7-2.8l1.1-1.5L26,27.9z"/>
		<path class="st0" d="M31.9,20.7c0.1,0.6,0,1.3-0.3,1.9c-0.3,0.6-0.7,1.2-1.4,1.7L28,26l-4.6-6l2.3-1.7c0.6-0.5,1.3-0.8,2-0.9
			c0.7-0.1,1.3,0,1.9,0.2c0.6,0.3,1.1,0.7,1.6,1.3C31.5,19.5,31.8,20.1,31.9,20.7z M30.1,21.6c0.1-0.5-0.1-1.1-0.5-1.6
			c-0.4-0.5-0.9-0.8-1.4-0.9c-0.5-0.1-1.1,0.1-1.7,0.6l-0.7,0.5l2.6,3.4l0.7-0.5C29.7,22.6,30,22.2,30.1,21.6z"/>
		<path class="st0" d="M34.8,14.4l0.6,1.4l2.3-1l0.6,1.3l-2.3,1l0.7,1.5l2.6-1.2l0.6,1.3l-4.3,1.9l-3.1-6.9l4.3-1.9l0.6,1.3
			L34.8,14.4z"/>
		<path class="st0" d="M50.7,15.4l-2.8,0.2L47.5,17l-1.9,0.1l2.2-7.7l2.1-0.2l3.3,7.3l-1.9,0.1L50.7,15.4z M50.1,14L49,11.3
			l-0.7,2.8L50.1,14z"/>
		<path class="st0" d="M57.6,14.5l-0.4,2.6l-1.8-0.3l1.3-7.4l2.9,0.5c0.9,0.2,1.5,0.5,1.9,1c0.4,0.5,0.5,1.1,0.4,1.9
			c-0.1,0.5-0.3,0.9-0.5,1.2c-0.3,0.3-0.6,0.6-1.1,0.7c-0.4,0.1-1,0.2-1.5,0.1L57.6,14.5z M60,12.4c0.1-0.7-0.2-1-0.9-1.2l-0.9-0.2
			L57.9,13l0.9,0.2C59.5,13.3,59.9,13.1,60,12.4z"/>
		<path class="st0" d="M68.2,19l-2.6-1.1l-1,1.1l-1.8-0.8l5.6-5.8l1.9,0.8l-0.5,8L68,20.5L68.2,19z M68.3,17.6l0.3-2.9l-2,2.2
			L68.3,17.6z"/>
		<path class="st0" d="M74.7,24.9l0.5-3.3l-0.3-0.3l-1.8,2.2l-1.4-1.1l4.7-6l2.5,1.9c0.5,0.4,0.8,0.8,1,1.2c0.2,0.4,0.3,0.8,0.2,1.2
			c-0.1,0.4-0.2,0.8-0.5,1.2c-0.3,0.4-0.7,0.7-1.2,0.8c-0.5,0.1-1,0.1-1.5-0.2l-0.4,3.4L74.7,24.9z M75.6,20.4l0.9,0.7
			c0.3,0.2,0.5,0.3,0.8,0.3c0.2,0,0.4-0.2,0.6-0.4c0.2-0.2,0.3-0.5,0.2-0.7c0-0.2-0.2-0.5-0.5-0.7l-0.9-0.7L75.6,20.4z"/>
		<path class="st0" d="M86.2,33.8c-0.1,0.4-0.4,0.7-0.8,1c-0.5,0.3-1.1,0.4-1.6,0.3c-0.5-0.2-1-0.6-1.5-1.3l-1.9-3l6.4-4l1.8,2.9
			c0.4,0.7,0.6,1.2,0.5,1.8s-0.3,1-0.9,1.3c-0.4,0.2-0.8,0.3-1.2,0.3c-0.4,0-0.7-0.2-1-0.5C86.3,33,86.3,33.4,86.2,33.8z M84.6,33.1
			c0.2-0.1,0.4-0.3,0.4-0.6c0-0.2,0-0.5-0.2-0.8l-0.7-1.1l-1.4,0.9l0.7,1.1C83.7,33.2,84.2,33.4,84.6,33.1z M85.2,30l0.6,1
			c0.3,0.5,0.7,0.7,1.2,0.4c0.5-0.3,0.5-0.7,0.2-1.3l-0.6-1L85.2,30z"/>
		<path class="st0" d="M87.5,42.1l-0.9-2.7l-1.5,0l-0.6-1.8l8,0.3l0.6,2l-6.3,4.9L86.3,43L87.5,42.1z M88.6,41.3l2.4-1.7l-2.9-0.1
			L88.6,41.3z"/>
		<path class="st0" d="M87.5,53.7l-0.1-1.8l4.5-3.3l-4.6,0.2L87.2,47l7.5-0.4l0.1,1.8l-4.5,3.3l4.7-0.2l0.1,1.8L87.5,53.7z"/>
		<path class="st0" d="M94.3,59.5l-7.5-1.1l0.3-1.8l7.5,1.1L94.3,59.5z"/>
		<path class="st0" d="M93,65.1L85.7,63l0.5-1.8l7.2,2.1L93,65.1z"/>
	</g>
	<g>
		<g>
			<path class="st0" d="M19.6,73.3l-1.6,1l-1-1.6l1.6-1L19.6,73.3z"/>
			<path class="st0" d="M24.3,81.4l-1.8,2l-1.4-1.2l5.1-5.6l2.2,2c0.7,0.6,1,1.2,1.1,1.9c0,0.6-0.2,1.2-0.7,1.8
				c-0.3,0.3-0.7,0.6-1.1,0.7c-0.4,0.1-0.8,0.1-1.3,0c-0.4-0.1-0.9-0.4-1.3-0.8L24.3,81.4z M27.4,80.9c0.4-0.5,0.4-1-0.1-1.5
				l-0.7-0.6l-1.3,1.5l0.7,0.6C26.5,81.4,27,81.4,27.4,80.9z"/>
			<path class="st0" d="M36.9,84.6c0.4,0.6,0.5,1.2,0.6,1.9c0,0.7-0.1,1.3-0.5,2s-0.8,1.2-1.4,1.5c-0.6,0.4-1.2,0.6-1.9,0.6
				c-0.7,0-1.3-0.1-1.9-0.5c-0.6-0.3-1.1-0.8-1.5-1.3c-0.4-0.6-0.5-1.2-0.6-1.9c0-0.7,0.1-1.3,0.5-2c0.4-0.7,0.8-1.2,1.4-1.5
				c0.6-0.4,1.2-0.5,1.9-0.6c0.7,0,1.3,0.1,1.9,0.5C36,83.6,36.5,84,36.9,84.6z M33.1,84.6c-0.5,0.2-0.9,0.6-1.2,1.1
				c-0.3,0.6-0.4,1.1-0.3,1.6c0.1,0.5,0.5,0.9,1,1.2c0.5,0.3,1,0.3,1.5,0.2c0.5-0.2,0.9-0.6,1.2-1.1c0.3-0.6,0.4-1.1,0.3-1.6
				c-0.1-0.5-0.5-0.9-1-1.2C34.1,84.5,33.6,84.4,33.1,84.6z"/>
			<path class="st0" d="M45.7,92.9c-0.4,0.5-1,0.8-1.6,1c-0.7,0.2-1.4,0.2-2.2,0l-2.8-0.7l1.7-7.4l2.8,0.7c0.8,0.2,1.4,0.5,1.9,0.9
				c0.5,0.4,0.8,1,1,1.6c0.2,0.6,0.2,1.3,0,2C46.4,91.8,46.1,92.4,45.7,92.9z M43.8,92.1c0.5-0.3,0.8-0.7,0.9-1.4
				c0.2-0.7,0.1-1.2-0.2-1.7c-0.3-0.5-0.8-0.8-1.5-0.9l-0.8-0.2l-1,4.2l0.8,0.2C42.8,92.4,43.4,92.4,43.8,92.1z"/>
			<path class="st0" d="M55.5,88.2c0.6,0.5,1.1,1.2,1.3,2l-1.9,0.1c-0.2-0.3-0.4-0.6-0.7-0.8c-0.3-0.2-0.7-0.3-1.1-0.3
				c-0.5,0-1,0.2-1.3,0.6c-0.3,0.4-0.5,0.9-0.4,1.6c0,0.7,0.2,1.2,0.5,1.6c0.3,0.4,0.8,0.6,1.3,0.5c0.4,0,0.8-0.1,1-0.3
				c0.3-0.2,0.5-0.5,0.6-0.8l1.9-0.1c-0.2,0.9-0.5,1.6-1.2,2.1c-0.6,0.5-1.4,0.8-2.4,0.8c-0.7,0-1.4-0.1-1.9-0.4
				c-0.6-0.3-1-0.7-1.3-1.3c-0.3-0.6-0.5-1.2-0.5-2c0-0.7,0.1-1.4,0.4-2c0.3-0.6,0.7-1.1,1.2-1.4c0.5-0.3,1.2-0.5,1.9-0.5
				C54.1,87.4,54.9,87.7,55.5,88.2z"/>
			<path class="st0" d="M65.2,91.6l-2.7,0.8l-0.1,1.5l-1.8,0.5l0.5-8l2-0.6l4.8,6.4L66,92.8L65.2,91.6z M64.3,90.4L62.6,88L62.5,91
				L64.3,90.4z"/>
			<path class="st0" d="M75.2,87.2c0,0.4-0.1,0.8-0.4,1.1c-0.2,0.4-0.6,0.7-1.1,1c-0.7,0.4-1.4,0.6-2.1,0.5
				c-0.7-0.1-1.2-0.4-1.6-1.1l1.7-1c0.2,0.2,0.4,0.4,0.6,0.4s0.5,0,0.7-0.1c0.2-0.1,0.3-0.3,0.4-0.4c0.1-0.2,0-0.4-0.1-0.5
				c-0.1-0.2-0.2-0.3-0.4-0.3c-0.2,0-0.4-0.1-0.6,0c-0.2,0-0.5,0.1-0.8,0.1c-0.5,0.1-0.9,0.2-1.3,0.2c-0.3,0-0.7-0.1-1-0.2
				c-0.3-0.2-0.6-0.4-0.9-0.9c-0.2-0.4-0.3-0.8-0.3-1.2c0-0.4,0.2-0.8,0.4-1.1c0.3-0.4,0.6-0.7,1.1-0.9c0.7-0.4,1.4-0.6,2-0.5
				c0.6,0.1,1.1,0.4,1.5,1l-1.7,1c-0.2-0.2-0.3-0.3-0.5-0.4c-0.2-0.1-0.4,0-0.6,0.1c-0.2,0.1-0.3,0.2-0.4,0.4
				c-0.1,0.2,0,0.3,0.1,0.5c0.1,0.2,0.2,0.3,0.4,0.3c0.2,0,0.3,0.1,0.5,0c0.2,0,0.5-0.1,0.8-0.1c0.5-0.1,0.9-0.2,1.3-0.2
				c0.3,0,0.7,0.1,1,0.2c0.3,0.2,0.6,0.4,0.9,0.9C75.1,86.5,75.2,86.8,75.2,87.2z"/>
			<path class="st0" d="M78.1,76.4l1,1.1l-1.5,1.4l4.1,4.5l-1.4,1.2L76.2,80l-1.5,1.4l-1-1.1L78.1,76.4z"/>
			<path class="st0" d="M85.4,71.9l1.5,1l-1,1.6l-1.5-1L85.4,71.9z"/>
		</g>
	</g>
	<g>
		<path class="st0" d="M52.1,104.2C23.4,104.2,0,80.8,0,52.1S23.4,0,52.1,0c28.7,0,52.1,23.4,52.1,52.1S80.8,104.2,52.1,104.2z
			 M52.1,1.7C24.3,1.7,1.7,24.3,1.7,52.1s22.6,50.4,50.4,50.4s50.4-22.6,50.4-50.4S79.9,1.7,52.1,1.7z"/>
	</g>
</g>
</svg>
